<?xml version="1.0" encoding="UTF-8"?>
<svg version="1.1" xmlns="http://www.w3.org/2000/svg" width="1221" height="86">
<path d="M0 0 C0.92371875 -0.00260757 1.8474375 -0.00521514 2.79914773 -0.00790173 C4.34633423 -0.00455591 4.34633423 -0.00455591 5.92477703 -0.0011425 C7.01804487 -0.00270409 8.11131271 -0.00426567 9.23770988 -0.00587457 C12.97616005 -0.00991861 16.71457044 -0.00667854 20.45302105 -0.00355339 C23.16686521 -0.00434002 25.88070773 -0.00661345 28.59455109 -0.0087862 C35.40860341 -0.01326807 42.222645 -0.0121103 49.03669778 -0.00930989 C54.85715843 -0.00706468 60.67761557 -0.00710443 66.49807644 -0.00854111 C67.34941033 -0.00874947 68.20074422 -0.00895784 69.07787611 -0.00917252 C70.82188273 -0.0096065 72.56588934 -0.01004373 74.30989596 -0.01048411 C92.52516355 -0.01475816 110.74042535 -0.01102875 128.95569205 -0.00497442 C142.39863245 -0.00051733 155.84157212 0.00241789 169.28451314 0.00412504 C261.43863572 0.0161054 353.59271694 0.08678595 744.85809527 0.50814375 C768.52814478 0.53747101 792.1981947 0.56624491 815.86824703 0.59321022 C817.47041172 0.59503606 817.47041172 0.59503606 819.10494338 0.59689878 C824.48911602 0.60303179 829.87328868 0.60915532 835.25746134 0.61527696 C874.66267677 0.66009611 914.06788559 0.7084316 953.47308946 0.76251906 C957.40832121 0.76790897 961.34355297 0.77328682 965.27878475 0.77865601 C966.24612527 0.77997778 967.21346578 0.78129955 968.21011964 0.78266138 C983.61357932 0.8036306 999.01704098 0.82143021 1014.42050595 0.8380017 C1029.74758704 0.85457068 1045.07466019 0.87471745 1060.40173179 0.89852209 C1069.43583384 0.91245367 1078.46992989 0.92378355 1087.50403969 0.93120328 C1093.54046531 0.93643194 1099.57687921 0.94524114 1105.61329595 0.95682809 C1109.03266973 0.96329569 1112.4520128 0.9678104 1115.87139462 0.96900327 C1132.85919965 0.97606036 1149.79594989 1.34029333 1166.76625347 2.12584114 C1165.89125347 7.00084114 1165.89125347 7.00084114 1164.76625347 8.12584114 C1163.05286804 8.22328732 1161.3354191 8.24966041 1159.61926496 8.24903965 C1157.93069877 8.25205195 1157.93069877 8.25205195 1156.20802013 8.25512511 C1154.3249019 8.25076127 1154.3249019 8.25076127 1152.40374088 8.24630928 C1151.06439456 8.24673341 1149.72504832 8.24759127 1148.38570251 8.24884647 C1144.66764301 8.25100773 1140.94961288 8.2468001 1137.23155737 8.2415913 C1133.19245707 8.23697942 1129.15335756 8.23802925 1125.11425519 8.23829269 C1117.06295601 8.23782736 1109.01167002 8.23164285 1100.96037521 8.22361498 C1094.22791084 8.21702182 1087.49544808 8.21266474 1080.76298118 8.20968628 C980.56687829 8.16457372 880.37091421 7.94985208 780.1750522 7.7387554 C761.22887518 7.69886862 742.28269646 7.65988438 723.33651638 7.62147713 C722.65316119 7.62009151 721.969806 7.6187059 721.26574307 7.6172783 C715.01965043 7.60461372 708.77355777 7.59195815 702.52746509 7.57931334 C687.03589592 7.54795156 671.54432699 7.51647764 656.05275822 7.48492622 C654.99736515 7.48277686 654.99736515 7.48277686 653.92065101 7.48058407 C620.12374057 7.41174508 586.32683285 7.34161051 552.52992535 7.27134895 C540.87809025 7.24712629 529.22625514 7.22290954 517.57441998 7.19871712 C516.85125599 7.19721562 516.128092 7.19571413 515.38301395 7.19416714 C481.43427891 7.12368806 447.48554194 7.0541611 413.53680447 6.9848625 C411.31872181 6.98033478 409.10063916 6.97580665 406.8825565 6.97127844 C392.17682744 6.94125739 377.47109835 6.91125236 362.76536924 6.88125804 C333.53247015 6.82163346 304.29957125 6.76191502 275.06667248 6.70213159 C273.67615233 6.69928787 272.28563219 6.69644422 270.89511204 6.69360064 C182.64103002 6.51312219 94.38695252 6.33045804 -4.23374653 6.12584114 C-4.6159342 4.46969457 -4.94769755 2.8012709 -5.23374653 1.12584114 C-3.67264434 -0.43526105 -2.1720545 0.00044072 0 0 Z " fill="#FEFEFE" transform="translate(19.23374652862549,34.87415885925293)"/>
</svg>
